PathFileType	4	(X/Y/Z)	C:\Users\italobelli\Desktop\GitHub\PTbot_officialCBL\Personal_Results\FLX22_noisy2.trc
DataRate	CameraRate	NumFrames	NumMarkers	Units	OrigDataRate	OrigDataStartFrame	OrigNumFrames
106.125000	106.125000	29	9	m	106.125000	107	850
Frame#	Time		gu		centelbow		EpL		centpxt8		centijc7		ij		ts		aa		ai
			X1	Y1	Z1	X2	Y2	Z2	X3	Y3	Z3	X4	Y4	Z4	X5	Y5	Z5	X6	Y6	Z6	X7	Y7	Z7	X8	Y8	Z8	X9	Y9	Z9

107	0.99882	-0.078182	-0.022177	0.16564	-0.1277	-0.26221	0.18719	-0.11144	-0.25846	0.21478	-0.046816	-0.15316	-0.008669	-0.046816	0.031938	-0.008669	0	0	0	-0.13581	0.029375	0.053807	-0.10597	0.017736	0.16869	-0.15762	-0.082026	0.053596
108	1.0082	-0.078156	-0.022216	0.16565	-0.12738	-0.2622	0.18742	-0.1111	-0.25842	0.21499	-0.046816	-0.15316	-0.008669	-0.046816	0.031938	-0.008669	0	0	0	-0.13584	0.029349	0.053813	-0.10597	0.017724	0.16869	-0.15765	-0.082043	0.053623
109	1.0177	-0.078122	-0.02225	0.16565	-0.12692	-0.26217	0.18769	-0.11062	-0.25835	0.21524	-0.046816	-0.15316	-0.008669	-0.046816	0.031938	-0.008669	0	0	0	-0.13587	0.029315	0.053817	-0.10597	0.017714	0.16869	-0.15768	-0.08207	0.053656
110	1.0271	-0.07808	-0.022278	0.16565	-0.12632	-0.26212	0.18802	-0.11	-0.25824	0.21555	-0.046816	-0.15316	-0.008669	-0.046816	0.031938	-0.008669	0	0	0	-0.1359	0.029274	0.053818	-0.10597	0.017708	0.16869	-0.15772	-0.082107	0.053695
111	1.0365	-0.07803	-0.022301	0.16565	-0.12557	-0.26205	0.18839	-0.10925	-0.25811	0.21591	-0.046816	-0.15316	-0.008669	-0.046816	0.031938	-0.008669	0	0	0	-0.13593	0.029225	0.053816	-0.10597	0.017704	0.16868	-0.15774	-0.082153	0.053738
112	1.0459	-0.077971	-0.022318	0.16564	-0.1247	-0.26197	0.1888	-0.10838	-0.25796	0.21631	-0.046816	-0.15316	-0.008669	-0.046816	0.031938	-0.008669	0	0	0	-0.13596	0.029169	0.053813	-0.10596	0.017703	0.16867	-0.15777	-0.082209	0.053788
113	1.0554	-0.077905	-0.022329	0.16562	-0.1237	-0.26186	0.18926	-0.10738	-0.25777	0.21675	-0.046816	-0.15316	-0.008669	-0.046816	0.031938	-0.008669	0	0	0	-0.136	0.029107	0.053807	-0.10595	0.017705	0.16866	-0.15779	-0.082274	0.053842
114	1.0648	-0.077832	-0.022336	0.16561	-0.12257	-0.26174	0.18977	-0.10626	-0.25756	0.21724	-0.046816	-0.15316	-0.008669	-0.046816	0.031938	-0.008669	0	0	0	-0.13604	0.029037	0.0538	-0.10594	0.017709	0.16865	-0.15781	-0.082348	0.053902
115	1.0742	-0.077752	-0.022337	0.16559	-0.12132	-0.26161	0.19031	-0.10503	-0.25733	0.21777	-0.046816	-0.15316	-0.008669	-0.046816	0.031938	-0.008669	0	0	0	-0.13608	0.028961	0.05379	-0.10593	0.017716	0.16863	-0.15783	-0.08243	0.053967
116	1.0836	-0.077664	-0.022333	0.16556	-0.11996	-0.26145	0.19089	-0.10369	-0.25706	0.21833	-0.046816	-0.15316	-0.008669	-0.046816	0.031938	-0.008669	0	0	0	-0.13612	0.028879	0.053779	-0.10591	0.017725	0.16862	-0.15784	-0.082521	0.054037
117	1.0931	-0.07757	-0.022323	0.16553	-0.11848	-0.26128	0.1915	-0.10223	-0.25678	0.21893	-0.046816	-0.15316	-0.008669	-0.046816	0.031938	-0.008669	0	0	0	-0.13616	0.02879	0.053765	-0.10589	0.017737	0.1686	-0.15785	-0.08262	0.054112
118	1.1025	-0.077469	-0.022309	0.1655	-0.11689	-0.26109	0.19216	-0.10068	-0.25646	0.21956	-0.046816	-0.15316	-0.008669	-0.046816	0.031938	-0.008669	0	0	0	-0.1362	0.028695	0.05375	-0.10588	0.017751	0.16857	-0.15786	-0.082726	0.054193
119	1.1119	-0.077362	-0.022289	0.16546	-0.11521	-0.26089	0.19284	-0.099021	-0.25613	0.22023	-0.046816	-0.15316	-0.008669	-0.046816	0.031938	-0.008669	0	0	0	-0.13624	0.028595	0.053734	-0.10586	0.017767	0.16855	-0.15787	-0.082839	0.054278
120	1.1213	-0.077249	-0.022264	0.16543	-0.11342	-0.26067	0.19355	-0.097269	-0.25577	0.22093	-0.046816	-0.15316	-0.008669	-0.046816	0.031938	-0.008669	0	0	0	-0.13629	0.028488	0.053716	-0.10583	0.017786	0.16853	-0.15787	-0.082959	0.054369
121	1.1307	-0.077131	-0.022235	0.16538	-0.11153	-0.26043	0.1943	-0.095426	-0.25538	0.22165	-0.046816	-0.15316	-0.008669	-0.046816	0.031938	-0.008669	0	0	0	-0.13633	0.028377	0.053697	-0.10581	0.017807	0.1685	-0.15788	-0.083087	0.054465
122	1.1402	-0.077007	-0.022201	0.16534	-0.10956	-0.26018	0.19507	-0.093495	-0.25497	0.2224	-0.046816	-0.15316	-0.008669	-0.046816	0.031938	-0.008669	0	0	0	-0.13638	0.02826	0.053676	-0.10578	0.01783	0.16847	-0.15787	-0.08322	0.054565
123	1.1496	-0.076877	-0.022161	0.16529	-0.10749	-0.25991	0.19587	-0.09148	-0.25454	0.22318	-0.046816	-0.15316	-0.008669	-0.046816	0.031938	-0.008669	0	0	0	-0.13643	0.028138	0.053654	-0.10575	0.017856	0.16844	-0.15787	-0.08336	0.054671
124	1.159	-0.076743	-0.022117	0.16524	-0.10534	-0.25963	0.19669	-0.089386	-0.25409	0.22398	-0.046816	-0.15316	-0.008669	-0.046816	0.031938	-0.008669	0	0	0	-0.13648	0.028011	0.053632	-0.10573	0.017883	0.16841	-0.15787	-0.083505	0.054782
125	1.1684	-0.076604	-0.022069	0.16518	-0.10312	-0.25934	0.19753	-0.087216	-0.25362	0.2248	-0.046816	-0.15316	-0.008669	-0.046816	0.031938	-0.008669	0	0	0	-0.13653	0.02788	0.053608	-0.10569	0.017913	0.16838	-0.15786	-0.083656	0.054897
126	1.1779	-0.07646	-0.022015	0.16513	-0.10081	-0.25903	0.19839	-0.084974	-0.25312	0.22564	-0.046816	-0.15316	-0.008669	-0.046816	0.031938	-0.008669	0	0	0	-0.13659	0.027744	0.053583	-0.10566	0.017944	0.16834	-0.15785	-0.083812	0.055017
127	1.1873	-0.076312	-0.021957	0.16507	-0.098439	-0.2587	0.19928	-0.082665	-0.2526	0.2265	-0.046816	-0.15316	-0.008669	-0.046816	0.031938	-0.008669	0	0	0	-0.13664	0.027604	0.053557	-0.10563	0.017978	0.1683	-0.15784	-0.083972	0.055143
128	1.1967	-0.07616	-0.021895	0.16501	-0.095998	-0.25836	0.20017	-0.080292	-0.25207	0.22738	-0.046816	-0.15316	-0.008669	-0.046816	0.031938	-0.008669	0	0	0	-0.1367	0.02746	0.053531	-0.10559	0.018013	0.16827	-0.15782	-0.084138	0.055272
129	1.2061	-0.076005	-0.021828	0.16494	-0.093494	-0.25801	0.20109	-0.07786	-0.25151	0.22827	-0.046816	-0.15316	-0.008669	-0.046816	0.031938	-0.008669	0	0	0	-0.13675	0.027312	0.053504	-0.10555	0.018051	0.16823	-0.15781	-0.084307	0.055407
130	1.2155	-0.075845	-0.021756	0.16488	-0.09093	-0.25764	0.20201	-0.075372	-0.25093	0.22917	-0.046816	-0.15316	-0.008669	-0.046816	0.031938	-0.008669	0	0	0	-0.13681	0.02716	0.053477	-0.10552	0.01809	0.16819	-0.15779	-0.084481	0.055546
131	1.225	-0.075682	-0.021681	0.16481	-0.088312	-0.25727	0.20295	-0.072833	-0.25034	0.23008	-0.046816	-0.15316	-0.008669	-0.046816	0.031938	-0.008669	0	0	0	-0.13687	0.027004	0.053449	-0.10548	0.018131	0.16815	-0.15777	-0.084658	0.05569
132	1.2344	-0.075517	-0.021601	0.16474	-0.085643	-0.25687	0.20389	-0.070246	-0.24972	0.23099	-0.046816	-0.15316	-0.008669	-0.046816	0.031938	-0.008669	0	0	0	-0.13693	0.026846	0.05342	-0.10544	0.018174	0.16811	-0.15774	-0.084838	0.055839
133	1.2438	-0.075348	-0.021516	0.16466	-0.082927	-0.25647	0.20485	-0.067615	-0.24909	0.23192	-0.046816	-0.15316	-0.008669	-0.046816	0.031938	-0.008669	0	0	0	-0.13699	0.026684	0.053392	-0.10539	0.018218	0.16806	-0.15772	-0.085022	0.055992
134	1.2532	-0.075177	-0.021428	0.16459	-0.080169	-0.25605	0.20581	-0.064945	-0.24844	0.23285	-0.046816	-0.15316	-0.008669	-0.046816	0.031938	-0.008669	0	0	0	-0.13705	0.026519	0.053363	-0.10535	0.018264	0.16802	-0.15769	-0.085208	0.05615
135	1.2627	-0.075003	-0.021336	0.16451	-0.077373	-0.25562	0.20677	-0.062239	-0.24777	0.23378	-0.046816	-0.15316	-0.008669	-0.046816	0.031938	-0.008669	0	0	0	-0.13712	0.026352	0.053334	-0.1053	0.018311	0.16797	-0.15766	-0.085397	0.056313
